<svg width="24" height="24" viewBox="0 0 24 24" fill="none" xmlns="http://www.w3.org/2000/svg">
<path d="M17.7212 1H6.27881C5.54093 0.999989 4.93192 0.99998 4.43583 1.04051C3.92057 1.08261 3.44693 1.17296 3.00204 1.39964C2.31211 1.75118 1.75118 2.31211 1.39964 3.00204C1.17296 3.44693 1.08261 3.92057 1.04051 4.43583C0.99998 4.93192 0.999989 5.54091 1 6.27879V17.7212C0.999989 18.4591 0.99998 19.0681 1.04051 19.5642C1.08261 20.0794 1.17296 20.5531 1.39964 20.998C1.75118 21.6879 2.31211 22.2488 3.00204 22.6004C3.44693 22.827 3.92057 22.9174 4.43583 22.9595C4.93192 23 5.54091 23 6.27879 23H17.7212C18.4591 23 19.0681 23 19.5642 22.9595C20.0794 22.9174 20.5531 22.827 20.998 22.6004C21.6879 22.2488 22.2488 21.6879 22.6004 20.998C22.827 20.5531 22.9174 20.0794 22.9595 19.5642C23 19.0681 23 18.4591 23 17.7212V6.27879C23 5.54091 23 4.93192 22.9595 4.43583C22.9174 3.92057 22.827 3.44693 22.6004 3.00204C22.2488 2.31211 21.6879 1.75118 20.998 1.39964C20.5531 1.17296 20.0794 1.08261 19.5642 1.04051C19.0681 0.99998 18.4591 0.999989 17.7212 1Z" fill="#4CAF50"/>
<path fill-rule="evenodd" clip-rule="evenodd" d="M18.6894 7.31064C19.1035 7.72484 19.1035 8.39638 18.6894 8.81057L10.2045 17.2954C9.79031 17.7096 9.11878 17.7096 8.70458 17.2954L5.31064 13.9015C4.89645 13.4873 4.89645 12.8157 5.31064 12.4016C5.72484 11.9874 6.39638 11.9874 6.81057 12.4016L9.45455 15.0455L17.1894 7.31064C17.6036 6.89645 18.2752 6.89645 18.6894 7.31064Z" fill="white"/>
</svg>
