<svg width="18" height="21" viewBox="0 0 18 21" fill="none" xmlns="http://www.w3.org/2000/svg">
<path fill-rule="evenodd" clip-rule="evenodd" d="M12.2413 0.5H5.7587C4.95374 0.499988 4.28937 0.499978 3.74818 0.544195C3.18608 0.59012 2.66937 0.688684 2.18404 0.935975C1.43139 1.31947 0.819469 1.93139 0.435975 2.68404C0.188684 3.16937 0.0901201 3.68608 0.0441949 4.24818C-2.21543e-05 4.78937 -1.19522e-05 5.45372 4.11648e-07 6.25869V14.7413C-1.19522e-05 15.5463 -2.2158e-05 16.2106 0.0441949 16.7518C0.0901201 17.3139 0.188684 17.8306 0.435975 18.316C0.819469 19.0686 1.43139 19.6805 2.18404 20.064C2.66937 20.3113 3.18608 20.4099 3.74818 20.4558C4.28937 20.5 4.95372 20.5 5.75868 20.5H12.2413C13.0463 20.5 13.7106 20.5 14.2518 20.4558C14.8139 20.4099 15.3306 20.3113 15.816 20.064C16.5686 19.6805 17.1805 19.0686 17.564 18.316C17.8113 17.8306 17.9099 17.3139 17.9558 16.7518C18 16.2106 18 15.5463 18 14.7413V6.25868C18 5.45372 18 4.78937 17.9558 4.24818C17.9099 3.68608 17.8113 3.16937 17.564 2.68404C17.1805 1.93139 16.5686 1.31947 15.816 0.935975C15.3306 0.688684 14.8139 0.59012 14.2518 0.544195C13.7106 0.499978 13.0463 0.499988 12.2413 0.5ZM3.09202 2.71799C3.24842 2.6383 3.47262 2.57337 3.91104 2.53755C4.36113 2.50078 4.94342 2.5 5.8 2.5H8V8.79352C8 9.10444 8.33919 9.29649 8.6058 9.13652L10.2942 8.12348C10.4209 8.04748 10.5791 8.04748 10.7058 8.12348L12.3942 9.13652C12.6608 9.29649 13 9.10444 13 8.79352V2.50176C13.4455 2.50489 13.7954 2.51357 14.089 2.53755C14.5274 2.57337 14.7516 2.6383 14.908 2.71799C15.2843 2.90973 15.5903 3.2157 15.782 3.59202C15.8617 3.74842 15.9266 3.97262 15.9624 4.41104C15.9992 4.86113 16 5.44342 16 6.3V14.7C16 15.5566 15.9992 16.1389 15.9624 16.589C15.9266 17.0274 15.8617 17.2516 15.782 17.408C15.5903 17.7843 15.2843 18.0903 14.908 18.282C14.7516 18.3617 14.5274 18.4266 14.089 18.4624C13.6389 18.4992 13.0566 18.5 12.2 18.5H5.8C4.94342 18.5 4.36113 18.4992 3.91104 18.4624C3.47262 18.4266 3.24842 18.3617 3.09202 18.282C2.7157 18.0903 2.40973 17.7843 2.21799 17.408C2.1383 17.2516 2.07337 17.0274 2.03755 16.589C2.00078 16.1389 2 15.5566 2 14.7V6.3C2 5.44342 2.00078 4.86113 2.03755 4.41104C2.07337 3.97262 2.1383 3.74842 2.21799 3.59202C2.40973 3.2157 2.7157 2.90973 3.09202 2.71799Z" fill="#848A95"/>
</svg>
