<svg width="20" height="21" viewBox="0 0 20 21" fill="none" xmlns="http://www.w3.org/2000/svg">
<path d="M12.6388 1.37281L17.8767 5.673C18.4639 6.15451 18.9072 6.51806 19.2273 6.98045C19.5093 7.38788 19.7131 7.84416 19.8285 8.32606C19.9594 8.87299 19.9344 9.44577 19.9013 10.2044L19.6951 14.9901C19.6619 15.763 19.6344 16.4022 19.57 16.9225C19.503 17.4638 19.388 17.9595 19.1341 18.4227C18.7394 19.1428 18.1327 19.724 17.3962 20.0874C16.9225 20.3211 16.4223 20.4147 15.8786 20.4583C15.356 20.5002 14.7162 20.5002 13.9425 20.5002H13.1C12.5399 20.5002 12.2599 20.5002 12.046 20.3912C11.8578 20.2953 11.7049 20.1424 11.609 19.9542C11.5 19.7403 11.5 19.4603 11.5 18.9002V13.0002C11.5 12.1718 10.8284 11.5002 10 11.5002C9.17157 11.5002 8.5 12.1718 8.5 13.0002V18.9002C8.5 19.4603 8.5 19.7403 8.39101 19.9542C8.29513 20.1424 8.14215 20.2953 7.95399 20.3912C7.74008 20.5002 7.46005 20.5002 6.9 20.5002H6.05752C5.28376 20.5002 4.64404 20.5002 4.12138 20.4583C3.57768 20.4147 3.0775 20.3211 2.6038 20.0874C1.86735 19.724 1.26057 19.1428 0.865883 18.4227C0.612007 17.9595 0.496983 17.4638 0.430014 16.9225C0.365639 16.4021 0.338128 15.763 0.304852 14.99L0.0987298 10.2044C0.0656326 9.44576 0.0406447 8.87298 0.171528 8.32606C0.286851 7.84416 0.490711 7.38788 0.772727 6.98045C1.09279 6.51805 1.53611 6.15451 2.1233 5.67299L7.36117 1.37282C7.70037 1.09432 7.99613 0.851485 8.25798 0.667242C8.53686 0.47101 8.83295 0.300032 9.18546 0.200585C9.71809 0.0503258 10.2819 0.0503258 10.8145 0.200585C11.167 0.300032 11.4631 0.47101 11.742 0.667242C12.0039 0.851475 12.2996 1.09433 12.6388 1.37281Z" fill="#419544"/>
</svg>
