<svg width="61" height="60" viewBox="0 0 61 60" fill="none" xmlns="http://www.w3.org/2000/svg">
<path d="M34.6016 44.0625C34.6016 44.5287 34.4164 44.9758 34.0867 45.3055C33.7571 45.6351 33.31 45.8203 32.8438 45.8203C31.756 45.8203 30.7127 45.3882 29.9435 44.619C29.1743 43.8498 28.7422 42.8066 28.7422 41.7188V30C28.7422 29.8446 28.6805 29.6956 28.5706 29.5857C28.4607 29.4758 28.3117 29.4141 28.1563 29.4141C27.6901 29.4141 27.243 29.2289 26.9133 28.8992C26.5836 28.5696 26.3985 28.1225 26.3985 27.6562C26.3985 27.19 26.5836 26.7429 26.9133 26.4133C27.243 26.0836 27.6901 25.8984 28.1563 25.8984C29.2441 25.8984 30.2873 26.3306 31.0565 27.0998C31.8257 27.8689 32.2578 28.9122 32.2578 30V41.7188C32.2578 41.8741 32.3196 42.0232 32.4294 42.1331C32.5393 42.243 32.6884 42.3047 32.8438 42.3047C33.31 42.3047 33.7571 42.4899 34.0867 42.8195C34.4164 43.1492 34.6016 43.5963 34.6016 44.0625ZM29.3281 20.0391C29.9076 20.0391 30.474 19.8672 30.9558 19.5453C31.4376 19.2234 31.8131 18.7658 32.0348 18.2305C32.2566 17.6952 32.3146 17.1061 32.2015 16.5378C32.0885 15.9695 31.8095 15.4475 31.3997 15.0378C30.99 14.628 30.468 14.349 29.8997 14.236C29.3314 14.1229 28.7423 14.181 28.207 14.4027C27.6717 14.6244 27.2141 14.9999 26.8922 15.4817C26.5703 15.9635 26.3985 16.5299 26.3985 17.1094C26.3985 17.8864 26.7071 18.6316 27.2565 19.181C27.806 19.7304 28.5511 20.0391 29.3281 20.0391ZM60.3828 30C60.3828 35.9103 58.6302 41.6878 55.3467 46.602C52.0631 51.5162 47.396 55.3464 41.9357 57.6081C36.4753 59.8699 30.4669 60.4617 24.6702 59.3086C18.8735 58.1556 13.5489 55.3095 9.36967 51.1303C5.19049 46.9512 2.34443 41.6265 1.19139 35.8298C0.0383561 30.0331 0.630135 24.0247 2.89189 18.5643C5.15365 13.104 8.98381 8.43691 13.898 5.15335C18.8122 1.86978 24.5898 0.117188 30.5 0.117188C38.4226 0.126492 46.018 3.27784 51.6201 8.87994C57.2222 14.482 60.3735 22.0774 60.3828 30ZM56.8672 30C56.8672 24.7851 55.3208 19.6872 52.4235 15.3512C49.5263 11.0151 45.4083 7.63556 40.5903 5.63989C35.7723 3.64423 30.4708 3.12207 25.356 4.13945C20.2413 5.15683 15.5431 7.66807 11.8556 11.3556C8.16808 15.0431 5.65685 19.7413 4.63946 24.856C3.62208 29.9708 4.14424 35.2723 6.13991 40.0903C8.13558 44.9083 11.5151 49.0262 15.8512 51.9235C20.1873 54.8208 25.2851 56.3672 30.5 56.3672C37.4906 56.3594 44.1927 53.579 49.1359 48.6359C54.079 43.6927 56.8594 36.9906 56.8672 30Z" fill="#419544"/>
</svg>
