<svg width="20" height="21" viewBox="0 0 20 21" fill="none" xmlns="http://www.w3.org/2000/svg">
<path fill-rule="evenodd" clip-rule="evenodd" d="M6.03589 11.6339C6.51418 11.3578 7.12577 11.5217 7.40191 12C7.53272 12.2266 7.69289 12.4355 7.87868 12.6213C8.15726 12.8999 8.48797 13.1209 8.85195 13.2716C9.21593 13.4224 9.60603 13.5 10 13.5C10.394 13.5 10.7841 13.4224 11.1481 13.2716C11.512 13.1209 11.8427 12.8999 12.1213 12.6213C12.3071 12.4355 12.4673 12.2266 12.5981 12C12.8742 11.5217 13.4858 11.3578 13.9641 11.6339C14.4424 11.9101 14.6063 12.5217 14.3301 13C14.1121 13.3776 13.8452 13.7259 13.5355 14.0355C13.0712 14.4998 12.52 14.8681 11.9134 15.1194C11.3068 15.3707 10.6566 15.5 10 15.5C9.34339 15.5 8.69321 15.3707 8.08658 15.1194C7.47995 14.8681 6.92876 14.4998 6.46447 14.0355C6.15482 13.7259 5.88787 13.3776 5.66985 13C5.39371 12.5217 5.55759 11.9101 6.03589 11.6339Z" fill="#848A95"/>
<path fill-rule="evenodd" clip-rule="evenodd" d="M10 2.5C5.58172 2.5 2 6.08172 2 10.5C2 14.9183 5.58172 18.5 10 18.5C14.4183 18.5 18 14.9183 18 10.5C18 6.08172 14.4183 2.5 10 2.5ZM0 10.5C0 4.97715 4.47715 0.5 10 0.5C15.5228 0.5 20 4.97715 20 10.5C20 16.0228 15.5228 20.5 10 20.5C4.47715 20.5 0 16.0228 0 10.5Z" fill="#848A95"/>
</svg>
