<svg width="75" height="75" viewBox="0 0 75 75" fill="none" xmlns="http://www.w3.org/2000/svg">
<g clip-path="url(#clip0_110_846)">
<path d="M41.8269 56.25C41.8269 57.1058 41.5732 57.9423 41.0977 58.6539C40.6223 59.3655 39.9465 59.92 39.1558 60.2475C38.3652 60.575 37.4952 60.6607 36.6559 60.4938C35.8165 60.3268 35.0455 59.9147 34.4404 59.3096C33.8353 58.7044 33.4232 57.9335 33.2562 57.0941C33.0893 56.2548 33.175 55.3848 33.5025 54.5941C33.8299 53.8035 34.3845 53.1277 35.0961 52.6523C35.8077 52.1768 36.6442 51.9231 37.5 51.9231C38.6476 51.9231 39.7481 52.3789 40.5596 53.1904C41.3711 54.0019 41.8269 55.1024 41.8269 56.25ZM37.5 17.3077C29.5457 17.3077 23.0769 23.131 23.0769 30.2885V31.7308C23.0769 32.4958 23.3808 33.2295 23.9218 33.7705C24.4628 34.3115 25.1965 34.6154 25.9615 34.6154C26.7266 34.6154 27.4603 34.3115 28.0013 33.7705C28.5422 33.2295 28.8462 32.4958 28.8462 31.7308V30.2885C28.8462 26.3221 32.7296 23.0769 37.5 23.0769C42.2704 23.0769 46.1539 26.3221 46.1539 30.2885C46.1539 34.2548 42.2704 37.5 37.5 37.5C36.735 37.5 36.0012 37.8039 35.4603 38.3449C34.9193 38.8858 34.6154 39.6196 34.6154 40.3846V43.2692C34.6154 44.0343 34.9193 44.768 35.4603 45.309C36.0012 45.8499 36.735 46.1538 37.5 46.1538C38.2651 46.1538 38.9988 45.8499 39.5397 45.309C40.0807 44.768 40.3846 44.0343 40.3846 43.2692V43.0096C46.9615 41.8017 51.9231 36.5553 51.9231 30.2885C51.9231 23.131 45.4543 17.3077 37.5 17.3077ZM75 37.5C75 44.9168 72.8007 52.167 68.6801 58.3339C64.5596 64.5007 58.7029 69.3072 51.8506 72.1455C44.9984 74.9837 37.4584 75.7264 30.1841 74.2794C22.9098 72.8325 16.228 69.261 10.9835 64.0165C5.73904 58.772 2.16751 52.0902 0.720569 44.8159C-0.726377 37.5416 0.0162482 30.0016 2.85453 23.1494C5.69282 16.2971 10.4993 10.4404 16.6661 6.31989C22.833 2.19934 30.0832 0 37.5 0C47.4424 0.0104993 56.9746 3.96475 64.0049 10.9951C71.0352 18.0254 74.9895 27.5576 75 37.5ZM69.2308 37.5C69.2308 31.2242 67.3698 25.0894 63.8832 19.8713C60.3966 14.6532 55.4409 10.5862 49.6428 8.18459C43.8448 5.78296 37.4648 5.15459 31.3096 6.37893C25.1545 7.60327 19.5006 10.6253 15.063 15.063C10.6253 19.5006 7.60328 25.1545 6.37894 31.3096C5.1546 37.4648 5.78298 43.8448 8.18461 49.6428C10.5862 55.4409 14.6532 60.3965 19.8713 63.8832C25.0894 67.3698 31.2243 69.2308 37.5 69.2308C45.9126 69.2212 53.9779 65.8751 59.9265 59.9265C65.8751 53.9779 69.2212 45.9126 69.2308 37.5Z" fill="#419544"/>
</g>
<defs>
<clipPath id="clip0_110_846">
<rect width="75" height="75" fill="white"/>
</clipPath>
</defs>
</svg>
