<svg width="29" height="28" viewBox="0 0 29 28" fill="none" xmlns="http://www.w3.org/2000/svg">
<path d="M28.3415 7.56613C28.2609 7.4485 28.1539 7.35249 28.0295 7.28618C27.9052 7.21988 27.7672 7.18522 27.627 7.18512H8.96344L7.55068 2.18254C6.99666 0.212655 5.68016 0 5.14021 0H1.37328C0.890456 0 0.5 0.401381 0.5 0.896673C0.5 1.39197 0.890895 1.79332 1.37325 1.79332H5.13974C5.2589 1.79332 5.62253 1.79332 5.87055 2.67329L10.7306 21.0135C10.8361 21.4005 11.1795 21.6677 11.5713 21.6677H23.4423C23.8108 21.6677 24.1397 21.4307 24.2642 21.0745L28.4484 8.38515C28.5447 8.11018 28.5046 7.80407 28.3415 7.56613ZM22.8278 19.8749H12.2341L9.45429 8.97892H26.3855L22.8278 19.8749ZM21.0958 23.4851C19.8814 23.4851 18.8973 24.4955 18.8973 25.7426C18.8973 26.9896 19.8814 28 21.0958 28C22.3103 28 23.2944 26.9896 23.2944 25.7426C23.2944 24.4955 22.3103 23.4851 21.0958 23.4851ZM13.1812 23.4851C11.9667 23.4851 10.9827 24.4955 10.9827 25.7426C10.9827 26.9896 11.9667 28 13.1812 28C14.3957 28 15.3797 26.9896 15.3797 25.7426C15.3797 24.4955 14.3957 23.4851 13.1812 23.4851Z" fill="#4CAF50"/>
</svg>
